<?xml version="1.0" encoding="UTF-8" standalone="no"?>
<svg
   xmlns:dc="http://purl.org/dc/elements/1.1/"
   xmlns:cc="http://creativecommons.org/ns#"
   xmlns:rdf="http://www.w3.org/1999/02/22-rdf-syntax-ns#"
   xmlns:svg="http://www.w3.org/2000/svg"
   xmlns="http://www.w3.org/2000/svg"
   xmlns:sodipodi="http://sodipodi.sourceforge.net/DTD/sodipodi-0.dtd"
   xmlns:inkscape="http://www.inkscape.org/namespaces/inkscape"
   version="1.1"
   width="841.88977"
   height="595.27557"
   id="svg9"
   viewBox="0 0 841.88977 595.27557"
   sodipodi:docname="logo.cdr">
  <metadata
     id="metadata15">
    <rdf:RDF>
      <cc:Work
         rdf:about="">
        <dc:format>image/svg+xml</dc:format>
        <dc:type
           rdf:resource="http://purl.org/dc/dcmitype/StillImage" />
      </cc:Work>
    </rdf:RDF>
  </metadata>
  <defs
     id="defs13" />
  <sodipodi:namedview
     pagecolor="#ffffff"
     bordercolor="#666666"
     borderopacity="1"
     objecttolerance="10"
     gridtolerance="10"
     guidetolerance="10"
     inkscape:pageopacity="0"
     inkscape:pageshadow="2"
     inkscape:window-width="640"
     inkscape:window-height="480"
     id="namedview11" />
  <path
     d="M 0,0 V 595.2756 H 841.8898 V 0 Z"
     style="fill:none;stroke:#ffffff;stroke-width:0.5669;stroke-linecap:butt;stroke-linejoin:miter;stroke-dasharray:none"
     id="path2" />
  <g
     id="Layer1000">
    <path
       d="m 420.9459,166.8472 c 5.5231,0 10.9259,0.5156 16.1623,1.5008 l 3.5987,-19.7931 5.6185,-3.5235 3.4911,5.6385 -5.5749,19.3361 c 10.4932,2.9127 20.1883,7.7436 28.6837,14.0921 l 11.9381,-16.3335 6.5928,-0.72 0.6823,6.5966 -13.5453,15.0748 c 7.8431,6.955 14.4219,15.3037 19.3436,24.6617 l 17.955,-9.6889 6.2612,2.1867 -2.2223,6.2485 -18.8682,7.844 c 4.0201,9.5117 6.3957,19.8885 6.7703,30.7735 l 20.6201,-1.0844 4.7027,4.6759 -4.7027,4.6759 -20.6687,-0.9989 c -0.5179,10.8173 -3.0129,21.1167 -7.1313,30.5442 l 19.2659,8.0159 2.2205,6.2488 -6.2615,2.1849 -18.4002,-9.9357 c -5.156,9.5382 -12.0436,18.0034 -20.2411,24.9743 l 13.8978,15.8575 -0.764,6.5875 -6.5831,-0.8014 -12.2448,-17.1958 c -8.53,6.1149 -18.2117,10.7259 -28.6578,13.4417 l 5.6074,20.4239 -3.5628,5.5936 -5.5731,-3.5946 -3.5257,-20.9027 c -4.8365,0.8354 -9.809,1.274 -14.8845,1.274 -5.4863,0 -10.8537,-0.5091 -16.058,-1.4812 l -3.7023,20.8662 -5.6186,3.5235 -3.491,-5.6385 5.7795,-20.3718 c -10.3889,-2.8556 -19.9996,-7.5904 -28.4438,-13.8163 l -12.3827,17.0934 -6.5928,0.72 -0.6822,-6.5966 14.0244,-15.742 c -7.8393,-6.848 -14.4387,-15.0795 -19.4156,-24.3152 l -18.3621,10.0097 -6.2612,-2.1868 2.2223,-6.2484 19.2363,-8.093 c -4.0919,-9.3995 -6.5738,-19.6615 -7.0901,-30.4391 l -20.6684,0.9989 -4.7027,-4.6759 4.7027,-4.6759 20.6197,1.0844 c 0.3741,-10.8631 2.7418,-21.2193 6.7488,-30.7149 l -18.8344,-7.9307 -2.2205,-6.2487 6.2615,-2.185 17.9108,9.7701 c 5.0814,-9.6755 11.9312,-18.2767 20.1222,-25.3721 l -13.2895,-15.2941 0.7639,-6.5875 6.5832,0.8015 11.6629,16.5266 c 8.5728,-6.2528 18.3319,-10.9767 28.8778,-13.7674 l -5.2455,-19.4291 3.5628,-5.5936 5.5731,3.5947 3.262,19.8535 c 4.9195,-0.8644 9.9803,-1.3176 15.1475,-1.3176 z m 2.6906,12.7011 -0.8273,15.1182 c -0.6189,-0.0191 -1.2397,-0.0322 -1.8633,-0.0322 -0.8772,0 -1.7488,0.0231 -2.6166,0.0609 l -0.7615,-15.1469 z m 31.8151,8.6177 -7.2092,13.1332 c -1.3261,-0.691 -2.6809,-1.3345 -4.0638,-1.9257 l 5.8017,-13.8326 z m 6.5763,-31.5306 7.0595,-3.9047 1.3719,7.9501 -9.4874,8.9409 z m -70.8039,165.3972 5.8345,-14.0859 -1.561,-0.749 -0.3444,-0.165 -2.1251,-1.0198 -7.2753,13.3947 z m -20.479,24.8602 1.3719,7.9501 7.0595,-3.9047 1.0376,-12.9951 z m 109.889,-136.887 -12.1359,8.5965 c -0.8959,-1.2088 -1.8346,-2.3837 -2.8182,-3.5195 l 11.181,-9.8299 z m 19.6995,-25.4822 8.0562,-0.4255 -2.2417,7.7499 -12.4416,3.8935 z m -135.9901,117.7971 11.4056,-10.1176 -2.7792,-3.5013 -12.3995,8.866 z m -29.2871,13.4049 -2.2416,7.7498 8.0561,-0.4255 6.6147,-11.2337 z m 157.1801,-42.2122 -14.2209,-4.1284 c 0.3943,-1.4453 0.7343,-2.9127 1.0197,-4.3998 l 14.572,2.6164 z m 32.2057,-0.4461 5.3481,6.0394 -7.4606,3.0699 -10.7923,-7.3128 z m -176.845,-33.0953 15.0181,2.6275 1.0104,-4.3545 -14.6577,-4.1849 z m -28.7224,-14.5751 -7.4606,3.0699 5.3481,6.0394 12.9092,-1.8162 z m 157.8505,77.0807 -11.1114,-9.9123 c 0.9851,-1.134 1.9279,-2.3063 2.8253,-3.5135 l 12.0723,8.6832 z m 29.2493,13.4863 2.2205,7.7555 -8.0549,-0.4477 -6.5835,-11.2521 z m -145.2816,-106.1253 12.4164,8.8473 2.7894,-3.493 -11.4196,-10.0969 z m -19.6287,-25.5368 -8.0549,-0.4476 2.2205,7.7554 12.4301,3.9285 z m 50.6012,1.0507 5.7434,14.1233 -1.4525,0.6854 c -0.2632,0.1229 -0.5272,0.2455 -0.7883,0.3722 l -1.8021,0.8503 -7.1886,-13.4414 z m -20.3181,-24.9918 1.4232,-7.941 7.0342,3.9502 0.9533,13.0016 z m 52.2892,167.6645 -0.8273,-15.1184 c -0.6189,0.019 -1.2397,0.0321 -1.8633,0.0321 -0.8772,0 -1.7488,-0.0228 -2.6166,-0.0608 l -0.7615,15.1471 z m 31.3906,-8.394 -7.1235,-13.1784 c -1.3305,0.6822 -2.6906,1.3149 -4.0772,1.8967 l 5.7125,13.8716 z m 6.3725,31.5724 7.0342,3.9503 1.4232,-7.9411 -9.4291,-9.002 z m -45.4733,8.0943 4.6759,6.5744 4.6758,-6.5744 -4.6861,-12.1649 z m 0,-211.0222 4.6759,-6.5744 4.6758,6.5744 -4.6861,12.1649 z m -74.9971,102.827 20.8783,1.0981 v 0.5026 c -0.007,0.3606 -0.0137,0.7212 -0.0137,1.0834 0,0.3622 0.007,0.7228 0.0137,1.0834 v 1.8012 l -20.8294,1.0067 c 0.4773,9.9525 2.7745,19.4278 6.5616,28.1028 l 19.0569,-8.0178 1.9304,4.032 -18.1238,9.8799 c 4.5963,8.54 10.6984,16.1485 17.9506,22.4724 l 13.6121,-15.2791 3.4773,2.8091 -11.9958,16.5597 c 7.8001,5.7586 16.6826,10.1353 26.2861,12.7682 l 5.5593,-19.595 4.3545,1.0114 -3.5575,20.0492 c 4.8141,0.9037 9.7797,1.3769 14.8561,1.3769 4.6856,0 9.2756,-0.4061 13.7403,-1.1788 l -3.3844,-20.0642 4.3674,-0.9552 5.3942,19.6483 c 9.6578,-2.4996 18.6083,-6.7569 26.4898,-12.4094 l -11.8548,-16.648 3.5122,-2.7658 13.492,15.3946 c 7.5851,-6.4331 13.9564,-14.2538 18.7215,-23.0699 l -18.1556,-9.8037 1.9319,-4.0317 19.1002,7.947 c 3.8202,-8.7103 6.1346,-18.2308 6.6134,-28.2329 l -20.829,-1.0067 v -1.8259 c 0.006,-0.3525 0.0134,-0.7047 0.0134,-1.0587 0,-0.3541 -0.007,-0.706 -0.0134,-1.0588 v -0.5272 l 20.878,-1.0981 c -0.3322,-10.0807 -2.5274,-19.6898 -6.2531,-28.4937 l -19.3139,8.0296 c -0.5883,-1.3822 -1.2291,-2.7367 -1.9176,-4.0628 l 18.404,-9.9313 c -4.5439,-8.6602 -10.6276,-16.3847 -17.8858,-22.8131 l -13.9739,15.5517 c -1.1281,-0.9932 -2.2929,-1.9453 -3.4945,-2.8515 l 12.3377,-16.8801 c -7.8531,-5.8784 -16.8214,-10.3478 -26.5303,-13.0343 l -5.7945,20.0991 c -1.4472,-0.3943 -2.9165,-0.735 -4.4054,-1.0204 l 3.7415,-20.5792 c -4.8371,-0.9134 -9.8284,-1.3913 -14.9313,-1.3913 -4.7872,0 -9.4762,0.4218 -14.0322,1.2272 l 3.3909,20.6382 c -1.4921,0.2711 -2.9642,0.5989 -4.4148,0.9798 l -5.4507,-20.1899 c -9.7566,2.578 -18.782,6.9535 -26.7044,12.747 l 12.057,17.0851 c -1.2098,0.8956 -2.3858,1.8342 -3.5226,2.8172 l -13.7106,-15.7786 c -7.5761,6.5607 -13.9065,14.5202 -18.5933,23.4754 l 18.3606,10.0156 c -0.6838,1.3283 -1.3202,2.6846 -1.9039,4.0691 l -19.273,-8.1152 c -3.7051,8.7796 -5.8888,18.3584 -6.2197,28.4064 z m 152.668,-11.1844 -14.5826,2.5624 c -0.2876,-1.4868 -0.631,-2.9533 -1.0275,-4.3979 l 14.2347,-4.0751 z m 28.7115,-14.5963 7.4628,3.064 -5.3434,6.0441 -12.9108,-1.8071 z m -173.3262,48.2438 14.6387,-4.2613 -1.0126,-4.3539 -15.0015,2.7046 z m -32.2063,-0.4224 -5.3434,6.0441 7.4628,3.064 10.7867,-7.3206 z"
       style="fill:#aa8a3c;fill-rule:evenodd"
       id="path4" />
    <path
       d="m 126.2707,403.9985 c -7.1799,-6.0687 -16.2402,-9.4022 -25.0441,-9.4022 -17.0949,0 -30.6,13.0776 -30.6,29.3179 0,16.2402 13.4195,29.4032 30.9419,29.4032 8.8894,0 18.4626,-3.248 25.215,-8.462 v -23.4201 h -24.8732 v 6.5815 h 18.1208 v 13.2488 c -4.2738,3.4189 -11.4537,5.4703 -18.0352,5.4703 -14.7016,0 -23.591,-10.7699 -23.591,-22.7364 0,-12.5649 9.6588,-22.8217 22.9073,-22.8217 7.009,0 14.8726,2.8207 19.8301,7.4364 z m 26.2406,47.8658 v -22.7364 h 22.7364 l 12.8211,22.7364 h 8.4623 L 182.7694,428.188 c 7.8639,-2.1371 12.9924,-8.0348 12.9924,-15.5566 0,-4.2738 -1.5387,-8.0345 -4.2738,-10.9408 -3.5045,-3.6755 -8.462,-5.6413 -15.6419,-5.6413 h -30.7709 v 55.815 z m 23.3348,-49.2335 c 3.8463,0 7.1799,0.684 9.915,3.4192 1.624,1.7092 2.6499,4.0172 2.6499,6.4958 0,5.4706 -4.5304,10.0007 -10.6844,10.0007 h -25.2153 v -19.9157 z m 77.1837,-6.5815 v 35.985 c 0,9.4876 -7.4364,14.7016 -17.1805,14.7016 -9.5731,0 -17.0949,-5.214 -17.0949,-14.7016 v -35.985 h -7.3508 v 35.985 c 0,13.5904 10.5134,21.2831 24.4457,21.2831 14.1035,0 24.6169,-7.6927 24.6169,-21.2831 v -35.985 z m 34.4461,55.815 v -22.7364 h 22.7364 c 6.9233,0 11.6246,-1.8802 14.9581,-5.1284 3.077,-2.9061 4.9575,-6.9233 4.9575,-11.539 0,-3.9319 -1.453,-7.6927 -4.2738,-10.7699 -3.5044,-3.6755 -8.3763,-5.6413 -15.6418,-5.6413 h -30.1726 v 55.815 z m 22.7364,-49.2335 c 3.6754,0 7.2655,0.5984 9.915,3.4192 1.7096,1.8805 2.6498,4.0172 2.6498,6.4958 0,2.5645 -1.1111,5.0431 -2.9917,6.838 -2.906,2.7352 -6.4105,3.1627 -9.5731,3.1627 h -22.7364 v -19.9157 z m 28.8051,21.1978 c 0,16.4111 13.5904,29.4888 30.9418,29.4888 17.2659,0 31.1128,-13.0777 31.1128,-29.4888 0,-16.1547 -13.8469,-29.2323 -31.1128,-29.2323 -17.3514,0 -30.9418,13.0776 -30.9418,29.2323 z m 7.7783,0 c 0,-12.4793 10.0859,-22.6508 23.1635,-22.6508 13.0777,0 23.3346,10.1715 23.3346,22.6508 0,12.6504 -10.2569,22.9073 -23.3346,22.9073 -13.0776,0 -23.1635,-10.2569 -23.1635,-22.9073 z m 80.6879,28.0357 v -24.7875 h 26.3262 v 24.7875 h 12.3086 v -55.815 h -12.3086 v 20.685 h -26.3262 v -20.685 h -12.3084 v 55.815 z m 68.4654,0 v -55.815 h -12.223 v 55.815 z m 56.6697,-55.815 v 34.6173 h -0.0853 l -28.4633,-34.6173 h -10.5134 v 55.815 h 12.3083 v -34.5319 h 0.0856 l 28.3777,34.5319 h 10.5987 v -55.815 z m 25.1297,27.7793 c 0,16.5821 13.847,29.7453 31.5403,29.7453 17.6933,0 31.8821,-13.1632 31.8821,-29.7453 0,-16.2403 -14.1888,-29.4889 -31.8821,-29.4889 -17.6933,0 -31.5403,13.2486 -31.5403,29.4889 z m 12.8214,0 c 0,-10.3425 8.2054,-18.8898 18.7189,-18.8898 10.6843,0 19.0607,8.5473 19.0607,18.8898 0,10.5134 -8.3764,19.2319 -19.0607,19.2319 -10.5135,0 -18.7189,-8.7185 -18.7189,-19.2319 z m 89.5776,28.0357 c 10.5135,0 16.5821,-2.8207 21.3687,-7.3508 5.2138,-5.1284 8.0345,-12.4792 8.0345,-20.5993 0,-7.8639 -2.6495,-14.8728 -7.5217,-19.9157 -4.9575,-5.0431 -11.6246,-7.9492 -21.8815,-7.9492 h -26.2408 v 55.815 z M 666.1295,441.3509 V 406.6481 H 679.72 c 6.5814,0 9.5731,1.6242 12.3939,4.4447 3.077,3.1626 4.701,7.6073 4.701,12.9067 0,5.6415 -1.8805,10.0862 -5.1285,13.3342 -2.9061,2.5642 -5.5559,4.0172 -11.9664,4.0172 z m 89.4921,-23.8473 h -20.5994 v -10.8555 h 34.2754 v -10.5988 h -46.4984 v 55.815 h 48.4642 v -10.5134 h -36.2412 v -13.3341 h 20.5994 z"
       style="fill:#000942;fill-rule:evenodd"
       id="path6" />
  </g>
</svg>
